<?xml version="1.0" encoding="UTF-8"?>
<svg xmlns="http://www.w3.org/2000/svg" viewBox="0 0 64 64" aria-hidden="true" role="img">
  <title>Amazon</title>
  <path d="M24.5 18.2c5.7 0 10.1 3.7 10.1 9.1 0 4.1-1.8 6.8-4.2 8.5l4 5.8h-6.9l-2.8-4.3c-.5.1-1 .1-1.5.1h-4.6V18.2Zm-1.1 14.5c2.7 0 4.3-1.8 4.3-4.8 0-2.9-1.6-4.6-4.3-4.6h-2.6v9.4Z" fill="#111111"/>
  <path d="M16 43.2c8.5 5.4 20.5 6.8 31.4 1.5" fill="none" stroke="#FF9900" stroke-width="4" stroke-linecap="round"/>
  <path d="M43.7 40.7 51 43l-6.1 4.7" fill="none" stroke="#FF9900" stroke-width="4" stroke-linecap="round" stroke-linejoin="round"/>
  <path d="M47 21.8c.9 0 1.7.3 2.3.9.6.6.9 1.3.9 2.2s-.3 1.7-.9 2.3c-.6.6-1.3.9-2.3.9s-1.7-.3-2.3-.9c-.6-.6-.9-1.4-.9-2.3s.3-1.6.9-2.2c.6-.6 1.4-.9 2.3-.9Zm-2.4 8h4.8v12.4h-4.8Z" fill="#111111"/>
</svg>